mtllib 8UT2LOIB7E7TW0XAXNFL0JRTP.mtl
o 
usemtl mat_0-Material1718.jpg
v -0.0015320000238716602 0.452224999666214 0.09493599832057953
v -0.0005099999834783375 0.452224999666214 -0.10208199918270111
v 0.8559619784355164 0.9692720174789429 0.6170880198478699
v -0.0005099999834783375 0.452224999666214 -0.10208199918270111
v 0.8620849847793579 0.9677410125732422 -0.6497550010681152
v 0.8559619784355164 0.9692720174789429 0.6170880198478699
v 0.6145359873771667 1.2479579448699951 -0.6451619863510132
v -0.0005099999834783375 0.452224999666214 -0.10208199918270111
v 0.6079000234603882 1.25 0.6216819882392883
v -0.0005099999834783375 0.452224999666214 -0.10208199918270111
v -0.0015320000238716602 0.452224999666214 0.09493599832057953
v 0.6079000234603882 1.25 0.6216819882392883
v 0.8620849847793579 0.9677410125732422 -0.6497550010681152
v 0.6145359873771667 1.2479579448699951 -0.6451619863510132
v 0.8559619784355164 0.9692720174789429 0.6170880198478699
v 0.6145359873771667 1.2479579448699951 -0.6451619863510132
v 0.6079000234603882 1.25 0.6216819882392883
v 0.8559619784355164 0.9692720174789429 0.6170880198478699
v -0.013271000236272812 0.452224999666214 0.09493599832057953
v -0.8707630038261414 0.9692720174789429 0.6170880198478699
v -0.014291999861598015 0.452224999666214 -0.10208199918270111
v -0.8707630038261414 0.9692720174789429 0.6170880198478699
v -0.8768889904022217 0.9677410125732422 -0.6497550010681152
v -0.014291999861598015 0.452224999666214 -0.10208199918270111
v -0.6288290023803711 1.2479579448699951 -0.6451619863510132
v -0.622704029083252 1.25 0.6216819882392883
v -0.014291999861598015 0.452224999666214 -0.10208199918270111
v -0.622704029083252 1.25 0.6216819882392883
v -0.013271000236272812 0.452224999666214 0.09493599832057953
v -0.014291999861598015 0.452224999666214 -0.10208199918270111
v -0.8768889904022217 0.9677410125732422 -0.6497550010681152
v -0.8707630038261414 0.9692720174789429 0.6170880198478699
v -0.6288290023803711 1.2479579448699951 -0.6451619863510132
v -0.8707630038261414 0.9692720174789429 0.6170880198478699
v -0.622704029083252 1.25 0.6216819882392883
v -0.6288290023803711 1.2479579448699951 -0.6451619863510132
v 0.8973050117492676 -1.25 -0.942221999168396
v 1.0453239679336548 0.4695799946784973 -1.0453239679336548
v 0.8973050117492676 -1.25 0.942221999168396
v 1.0453239679336548 0.4695799946784973 -1.0453239679336548
v 1.0453239679336548 0.4695799946784973 1.0453239679336548
v 0.8973050117492676 -1.25 0.942221999168396
v -0.8973039984703064 -1.25 -0.942221999168396
v 0.8973050117492676 -1.25 -0.942221999168396
v -0.8973039984703064 -1.25 0.942221999168396
v 0.8973050117492676 -1.25 -0.942221999168396
v 0.8973050117492676 -1.25 0.942221999168396
v -0.8973039984703064 -1.25 0.942221999168396
v 0.8973050117492676 -1.25 -0.942221999168396
v -0.8973039984703064 -1.25 -0.942221999168396
v 1.0453239679336548 0.4695799946784973 -1.0453239679336548
v -0.8973039984703064 -1.25 -0.942221999168396
v -1.0453239679336548 0.4695799946784973 -1.0453239679336548
v 1.0453239679336548 0.4695799946784973 -1.0453239679336548
v -0.8973039984703064 -1.25 0.942221999168396
v 0.8973050117492676 -1.25 0.942221999168396
v -1.0453239679336548 0.4695799946784973 1.0453239679336548
v 0.8973050117492676 -1.25 0.942221999168396
v 1.0453239679336548 0.4695799946784973 1.0453239679336548
v -1.0453239679336548 0.4695799946784973 1.0453239679336548
v 1.0453239679336548 0.4695799946784973 -1.0453239679336548
v -1.0453239679336548 0.4695799946784973 -1.0453239679336548
v 1.0453239679336548 0.4695799946784973 1.0453239679336548
v -1.0453239679336548 0.4695799946784973 -1.0453239679336548
v -1.0453239679336548 0.4695799946784973 1.0453239679336548
v 1.0453239679336548 0.4695799946784973 1.0453239679336548
v -1.0453239679336548 0.4695799946784973 -1.0453239679336548
v -0.8973039984703064 -1.25 -0.942221999168396
v -1.0453239679336548 0.4695799946784973 1.0453239679336548
v -0.8973039984703064 -1.25 -0.942221999168396
v -0.8973039984703064 -1.25 0.942221999168396
v -1.0453239679336548 0.4695799946784973 1.0453239679336548
v -0.0005099999834783375 0.452224999666214 -0.10208199918270111
v 0.6145359873771667 1.2479579448699951 -0.6451619863510132
v 0.8620849847793579 0.9677410125732422 -0.6497550010681152
v -0.0015320000238716602 0.452224999666214 0.09493599832057953
v 0.8559619784355164 0.9692720174789429 0.6170880198478699
v 0.6079000234603882 1.25 0.6216819882392883
v -0.8768889904022217 0.9677410125732422 -0.6497550010681152
v -0.6288290023803711 1.2479579448699951 -0.6451619863510132
v -0.014291999861598015 0.452224999666214 -0.10208199918270111
v -0.622704029083252 1.25 0.6216819882392883
v -0.8707630038261414 0.9692720174789429 0.6170880198478699
v -0.013271000236272812 0.452224999666214 0.09493599832057953
vt 0.7753909826278687 -0.06738299876451492
vt 0.8837890028953552 -0.06738299876451492
vt 0.7216799855232239 -0.15527300536632538
vt 0.8837890028953552 -0.06738299876451492
vt 0.9384769797325134 -0.15625
vt 0.7216799855232239 -0.15527300536632538
vt 0.71875 -0.2861329913139343
vt 0.7744140028953552 -0.4228520095348358
vt 0.9365230202674866 -0.2861329913139343
vt 0.7744140028953552 -0.4228520095348358
vt 0.8818359971046448 -0.4228520095348358
vt 0.9365230202674866 -0.2861329913139343
vt 0.9384769797325134 -0.20117199420928955
vt 0.9375 -0.24902300536632538
vt 0.7207030057907104 -0.20019499957561493
vt 0.9375 -0.24902300536632538
vt 0.7197269797325134 -0.24804699420928955
vt 0.7207030057907104 -0.20019499957561493
vt 0.7753909826278687 -0.06738299876451492
vt 0.7216799855232239 -0.15527300536632538
vt 0.8837890028953552 -0.06738299876451492
vt 0.7216799855232239 -0.15527300536632538
vt 0.9384769797325134 -0.15625
vt 0.8837890028953552 -0.06738299876451492
vt 0.71875 -0.2861329913139343
vt 0.9365230202674866 -0.2861329913139343
vt 0.7744140028953552 -0.4228520095348358
vt 0.9365230202674866 -0.2861329913139343
vt 0.8818359971046448 -0.4228520095348358
vt 0.7744140028953552 -0.4228520095348358
vt 0.9384769797325134 -0.20117199420928955
vt 0.7207030057907104 -0.20019499957561493
vt 0.9375 -0.24902300536632538
vt 0.7207030057907104 -0.20019499957561493
vt 0.7197269797325134 -0.24804699420928955
vt 0.9375 -0.24902300536632538
vt 0.039062000811100006 -0.6259769797325134
vt 0.024413999170064926 -0.3837890028953552
vt 0.3046880066394806 -0.6259769797325134
vt 0.024413999170064926 -0.3837890028953552
vt 0.3193359971046448 -0.3837890028953552
vt 0.3046880066394806 -0.6259769797325134
vt 0.6181640028953552 -0.9765620231628418
vt 0.3789060115814209 -0.9765620231628418
vt 0.6181640028953552 -0.7109379768371582
vt 0.3789060115814209 -0.9765620231628418
vt 0.3789060115814209 -0.7109379768371582
vt 0.6181640028953552 -0.7109379768371582
vt 0.6210939884185791 -0.6259769797325134
vt 0.38085898756980896 -0.6259769797325134
vt 0.6386719942092896 -0.3837890028953552
vt 0.38085898756980896 -0.6259769797325134
vt 0.3583979904651642 -0.3837890028953552
vt 0.6386719942092896 -0.3837890028953552
vt 0.38085898756980896 -0.6259769797325134
vt 0.6210939884185791 -0.6259769797325134
vt 0.3583979904651642 -0.3837890028953552
vt 0.6210939884185791 -0.6259769797325134
vt 0.6386719942092896 -0.3837890028953552
vt 0.3583979904651642 -0.3837890028953552
vt 0.6386719942092896 -0.040038999170064926
vt 0.3583979904651642 -0.040038999170064926
vt 0.6386719942092896 -0.33398398756980896
vt 0.3583979904651642 -0.040038999170064926
vt 0.3583979904651642 -0.33398398756980896
vt 0.6386719942092896 -0.33398398756980896
vt 0.024413999170064926 -0.3837890028953552
vt 0.039062000811100006 -0.6259769797325134
vt 0.3193359971046448 -0.3837890028953552
vt 0.039062000811100006 -0.6259769797325134
vt 0.3046880066394806 -0.6259769797325134
vt 0.3193359971046448 -0.3837890028953552
vt 0.828125 -0.671875
vt 0.9375 -0.5292969942092896
vt 0.9814450144767761 -0.5791019797325134
vt 0.8271480202674866 -0.671875
vt 0.9804689884185791 -0.5791019797325134
vt 0.9365230202674866 -0.5292969942092896
vt 0.6708980202674866 -0.5820310115814209
vt 0.7158200144767761 -0.5292969942092896
vt 0.8251950144767761 -0.671875
vt 0.7167969942092896 -0.5292969942092896
vt 0.6728519797325134 -0.5791019797325134
vt 0.8251950144767761 -0.671875
vn 0.5151717690423094 -0.8570827887696049 0.002672372865843973
vn 0.5151717690423094 -0.8570827887696049 0.002672372865843973
vn 0.5151717690423094 -0.8570827887696049 0.002672372865843973
vn 0.5146458774372574 -0.857395594244642 0.00352360705993266
vn 0.5146458774372574 -0.857395594244642 0.00352360705993266
vn 0.5146458774372574 -0.857395594244642 0.00352360705993266
vn -0.7928897905887241 0.609343422405465 -0.00513551860716288
vn -0.7928897905887241 0.609343422405465 -0.00513551860716288
vn -0.7928897905887241 0.609343422405465 -0.00513551860716288
vn -0.793341752935159 0.6087626196298562 -0.004115336093744272
vn -0.793341752935159 0.6087626196298562 -0.004115336093744272
vn -0.793341752935159 0.6087626196298562 -0.004115336093744272
vn 0.7494612963604415 0.662042143734366 0.002822264575116343
vn 0.7494612963604415 0.662042143734366 0.002822264575116343
vn 0.7494612963604415 0.662042143734366 0.002822264575116343
vn 0.7493800056890807 0.6621340033850568 0.002858082348548655
vn 0.7493800056890807 0.6621340033850568 0.002858082348548655
vn 0.7493800056890807 0.6621340033850568 0.002858082348548655
vn -0.5151738577968793 -0.8570815413842879 0.002669767970021202
vn -0.5151738577968793 -0.8570815413842879 0.002669767970021202
vn -0.5151738577968793 -0.8570815413842879 0.002669767970021202
vn -0.5146455772526107 -0.8573957694576656 0.00352481636749909
vn -0.5146455772526107 -0.8573957694576656 0.00352481636749909
vn -0.5146455772526107 -0.8573957694576656 0.00352481636749909
vn 0.793030462218558 0.6091629431208223 -0.004816089886817564
vn 0.793030462218558 0.6091629431208223 -0.004816089886817564
vn 0.793030462218558 0.6091629431208223 -0.004816089886817564
vn 0.7933425426068232 0.6087616177161558 -0.004111311925670246
vn 0.7933425426068232 0.6087616177161558 -0.004111311925670246
vn 0.7933425426068232 0.6087616177161558 -0.004111311925670246
vn -0.748783402369162 0.6628087695051873 0.0028198233067801212
vn -0.748783402369162 0.6628087695051873 0.0028198233067801212
vn -0.748783402369162 0.6628087695051873 0.0028198233067801212
vn -0.7493821215209202 0.6621328444467045 0.002555826621808565
vn -0.7493821215209202 0.6621328444467045 0.002555826621808565
vn -0.7493821215209202 0.6621328444467045 0.002555826621808565
vn 0.9963157031079001 -0.08576141172235137 0
vn 0.9963157031079001 -0.08576141172235137 0
vn 0.9963157031079001 -0.08576141172235137 0
vn 0.9963157031079001 -0.08576141172235137 0
vn 0.9963157031079001 -0.08576141172235137 0
vn 0.9963157031079001 -0.08576141172235137 0
vn 0 -1 0
vn 0 -1 0
vn 0 -1 0
vn 0 -1 0
vn 0 -1 0
vn 0 -1 0
vn 0 -0.059850162675467666 -0.9982073722567472
vn 0 -0.059850162675467666 -0.9982073722567472
vn 0 -0.059850162675467666 -0.9982073722567472
vn 0 -0.059850162675467666 -0.9982073722567472
vn 0 -0.059850162675467666 -0.9982073722567472
vn 0 -0.059850162675467666 -0.9982073722567472
vn 0 -0.059850162675467666 0.9982073722567472
vn 0 -0.059850162675467666 0.9982073722567472
vn 0 -0.059850162675467666 0.9982073722567472
vn 0 -0.059850162675467666 0.9982073722567472
vn 0 -0.059850162675467666 0.9982073722567472
vn 0 -0.059850162675467666 0.9982073722567472
vn 0 1 0
vn 0 1 0
vn 0 1 0
vn 0 1 0
vn 0 1 0
vn 0 1 0
vn -0.9963156530131216 -0.08576199368623044 0
vn -0.9963156530131216 -0.08576199368623044 0
vn -0.9963156530131216 -0.08576199368623044 0
vn -0.9963156530131216 -0.08576199368623044 0
vn -0.9963156530131216 -0.08576199368623044 0
vn -0.9963156530131216 -0.08576199368623044 0
vn -0.3693531763551504 -0.3119455586009296 -0.8753674654598006
vn -0.3693531763551504 -0.3119455586009296 -0.8753674654598006
vn -0.3693531763551504 -0.3119455586009296 -0.8753674654598006
vn -0.34496149519177155 -0.3192652473023584 0.8826501394663807
vn -0.34496149519177155 -0.3192652473023584 0.8826501394663807
vn -0.34496149519177155 -0.3192652473023584 0.8826501394663807
vn 0.3690746191658197 -0.3123731070517805 -0.8753324896737366
vn 0.3690746191658197 -0.3123731070517805 -0.8753324896737366
vn 0.3690746191658197 -0.3123731070517805 -0.8753324896737366
vn 0.34496345957441144 -0.31926330777227 0.8826500732842898
vn 0.34496345957441144 -0.31926330777227 0.8826500732842898
vn 0.34496345957441144 -0.31926330777227 0.8826500732842898
f 1/1/1 2/2/2 3/3/3
f 4/4/4 5/5/5 6/6/6
f 7/7/7 8/8/8 9/9/9
f 10/10/10 11/11/11 12/12/12
f 13/13/13 14/14/14 15/15/15
f 16/16/16 17/17/17 18/18/18
f 19/19/19 20/20/20 21/21/21
f 22/22/22 23/23/23 24/24/24
f 25/25/25 26/26/26 27/27/27
f 28/28/28 29/29/29 30/30/30
f 31/31/31 32/32/32 33/33/33
f 34/34/34 35/35/35 36/36/36
f 37/37/37 38/38/38 39/39/39
f 40/40/40 41/41/41 42/42/42
f 43/43/43 44/44/44 45/45/45
f 46/46/46 47/47/47 48/48/48
f 49/49/49 50/50/50 51/51/51
f 52/52/52 53/53/53 54/54/54
f 55/55/55 56/56/56 57/57/57
f 58/58/58 59/59/59 60/60/60
f 61/61/61 62/62/62 63/63/63
f 64/64/64 65/65/65 66/66/66
f 67/67/67 68/68/68 69/69/69
f 70/70/70 71/71/71 72/72/72
f 73/73/73 74/74/74 75/75/75
f 76/76/76 77/77/77 78/78/78
f 79/79/79 80/80/80 81/81/81
f 82/82/82 83/83/83 84/84/84
